HIERARCHY
ROOT SpineBase
{
  OFFSET 0.000000 0.000000 0.000000
  CHANNELS 6 Xposition Yposition Zposition Zrotation Xrotation Yrotation
  JOINT SpineMid
  {
    OFFSET 0.000000 27.854355 0.000000
    CHANNELS 3 Zrotation Xrotation Yrotation
    JOINT SpineShoulder
    {
      OFFSET 0.027132 20.555309 -1.026849
      CHANNELS 3 Zrotation Xrotation Yrotation
      JOINT Neck
      {
        OFFSET -0.089760 6.855879 -0.695135
        CHANNELS 3 Zrotation Xrotation Yrotation
        JOINT Head
        {
          OFFSET 1.756596 14.172575 0.070237
          CHANNELS 3 Zrotation Xrotation Yrotation
          End Site
          {
            OFFSET 0 0 0
          }
        }
      }
      JOINT ShoulderLeft
      {
        OFFSET -11.750334 -7.227929 -5.661677
        CHANNELS 3 Zrotation Xrotation Yrotation
        JOINT ElbowLeft
        {
          OFFSET -2.854150 -19.504306 -1.793149
          CHANNELS 3 Zrotation Xrotation Yrotation
          JOINT WristLeft
          {
            OFFSET 5.484015 -18.557528 -4.586400
            CHANNELS 3 Zrotation Xrotation Yrotation
            JOINT HandLeft
            {
              OFFSET 3.960461 -7.224037 -0.755294
              CHANNELS 3 Zrotation Xrotation Yrotation
              JOINT HandTipLeft
              {
                OFFSET 3.755196 -6.691515 -3.634106
                CHANNELS 3 Zrotation Xrotation Yrotation
                End Site
                {
                  OFFSET 0 0 0
                }
              }
              JOINT ThumbLeft
              {
                OFFSET -2.067265 -0.144998 -3.809475
                CHANNELS 3 Zrotation Xrotation Yrotation
                End Site
                {
                  OFFSET 0 0 0
                }
              }
            }
          }
        }
      }
      JOINT ShoulderRight
      {
        OFFSET 14.256048 -0.193356 -1.904577
        CHANNELS 3 Zrotation Xrotation Yrotation
        JOINT ElbowRight
        {
          OFFSET 11.462287 -8.538913 -0.397177
          CHANNELS 3 Zrotation Xrotation Yrotation
          JOINT WristRight
          {
            OFFSET -12.268912 14.343158 -4.986758
            CHANNELS 3 Zrotation Xrotation Yrotation
            JOINT HandRight
            {
              OFFSET -14.150040 10.960400 -0.852126
              CHANNELS 3 Zrotation Xrotation Yrotation
              JOINT HandTipRight
              {
                OFFSET -2.943813 6.297218 -1.672699
                CHANNELS 3 Zrotation Xrotation Yrotation
                End Site
                {
                  OFFSET 0 0 0
                }
              }
              JOINT ThumbRight
              {
                OFFSET 2.600833 3.817941 -4.153966
                CHANNELS 3 Zrotation Xrotation Yrotation
                End Site
                {
                  OFFSET 0 0 0
                }
              }
            }
          }
        }
      }
    }
  }
  JOINT HipLeft
  {
    OFFSET -7.589895 0.612180 -4.112169
    CHANNELS 3 Zrotation Xrotation Yrotation
    JOINT KneeLeft
    {
      OFFSET 17.660790 -35.433339 -0.362632
      CHANNELS 3 Zrotation Xrotation Yrotation
      JOINT AnkleLeft
      {
        OFFSET 8.982773 -36.040701 9.529144
        CHANNELS 3 Zrotation Xrotation Yrotation
        JOINT FootLeft
        {
          OFFSET 1.341347 -2.229037 -12.082777
          CHANNELS 3 Zrotation Xrotation Yrotation
          End Site
          {
            OFFSET 0 0 0
          }
        }
      }
    }
  }
  JOINT HipRight
  {
    OFFSET 7.055904 0.988766 -2.788049
    CHANNELS 3 Zrotation Xrotation Yrotation
    JOINT KneeRight
    {
      OFFSET 3.818798 -34.700722 -1.487988
      CHANNELS 3 Zrotation Xrotation Yrotation
      JOINT AnkleRight
      {
        OFFSET 9.519057 -35.814585 9.449811
        CHANNELS 3 Zrotation Xrotation Yrotation
        JOINT FootRight
        {
          OFFSET 1.538735 -2.607713 -11.073434
          CHANNELS 3 Zrotation Xrotation Yrotation
          End Site
          {
            OFFSET 0 0 0
          }
        }
      }
    }
  }
}
MOTION
Frames: 8
Frame Time: 0.033333
32.589853 79.760661 351.385310 -0.000000 0.000000 -5.166043 0.000000 0.000000 5.166043 -0.000000 0.000000 0.000000 -0.000000 0.000000 0.000000 0.000000 0.000000 0.000000 -0.000000 0.000000 0.000000 -0.000000 0.000000 0.000000 -0.000000 0.000000 0.000000 -0.000000 0.000000 0.000000 0.000000 0.000000 0.000000 0.000000 0.000000 0.000000 -0.000000 0.000000 0.000000 -0.000000 0.000000 0.000000 -0.000000 0.000000 0.000000 -0.000000 0.000000 0.000000 0.000000 0.000000 0.000000 0.000000 0.000000 0.000000 0.000000 0.000000 5.166043 -0.000000 0.000000 0.000000 -0.000000 0.000000 0.000000 0.000000 0.000000 0.000000 0.000000 0.000000 5.166043 -0.000000 0.000000 0.000000 -0.000000 0.000000 0.000000 0.000000 0.000000 0.000000
33.311425 79.141831 351.007754 1.326986 0.110192 -5.017645 -0.345896 -0.004652 5.064609 -0.095455 -0.106032 0.042109 -0.886686 -0.028299 -0.090502 0.000000 0.000000 0.000000 0.104289 0.027416 -0.190098 -2.054168 -0.304729 0.287181 -5.623089 -0.372312 0.161691 5.045594 -4.595180 -2.570751 0.000000 0.000000 0.000000 0.000000 0.000000 0.000000 0.530331 0.074666 -0.016985 1.330777 0.096445 1.032154 1.420986 -0.605760 -1.235967 1.007032 -2.565021 0.263199 0.000000 0.000000 0.000000 0.000000 0.000000 0.000000 -2.221027 -1.169120 4.582140 0.981311 0.867562 0.413151 0.005901 -3.392614 -2.470075 0.000000 0.000000 0.000000 -3.620848 -0.349768 5.110104 2.310405 -0.082367 -0.106256 -0.000000 0.000000 0.000000 0.000000 0.000000 0.000000
33.948510 78.608525 350.681189 2.424357 0.181370 -4.837250 -0.601642 0.017253 4.922043 -0.180325 -0.178595 0.079085 -0.466812 0.387377 -0.234581 0.000000 0.000000 0.000000 0.205777 0.059401 -0.358458 -3.842219 -0.610728 0.530945 -8.810428 -0.413830 0.292500 7.184447 -9.303411 -5.094536 0.000000 0.000000 0.000000 0.000000 0.000000 0.000000 1.130011 -0.058437 -0.271021 2.200375 0.492466 2.172864 2.734832 -1.448800 -2.436230 3.257347 -4.597890 1.197870 0.000000 0.000000 0.000000 0.000000 0.000000 0.000000 -4.059978 -2.182975 3.976345 1.780887 1.677681 0.785733 -0.162685 -7.183828 -5.243113 0.000000 0.000000 0.000000 -6.702101 -0.720590 4.972559 4.314306 -0.040137 -0.187219 -0.000000 0.000000 0.000000 0.000000 0.000000 0.000000
34.501109 78.160743 350.405616 3.302872 0.214830 -4.626892 -0.771253 0.064276 4.742505 -0.257000 -0.218965 0.110208 -0.475844 0.431615 -0.317757 0.000000 0.000000 0.000000 0.299555 0.097113 -0.505388 -5.362280 -0.914665 0.731799 -10.614283 -0.261455 0.440987 7.581457 -13.698008 -7.481419 0.000000 0.000000 0.000000 0.000000 0.000000 0.000000 1.799878 -0.406892 -0.754932 2.665968 1.188282 3.433239 4.082441 -2.538844 -3.622870 6.577690 -5.887014 2.767996 0.000000 0.000000 0.000000 0.000000 0.000000 0.000000 -5.527800 -3.048196 3.363295 2.401715 2.429095 1.123372 -0.567280 -11.345553 -8.339493 0.000000 0.000000 0.000000 -9.169257 -1.118516 4.762015 5.926558 0.141888 -0.244684 0.204434 0.107998 -0.800518 0.000000 0.000000 0.000000
34.969222 77.798485 350.181034 3.971348 0.211515 -4.388909 -0.857788 0.135050 4.529793 -0.327436 -0.228152 0.134973 -0.342671 0.376616 -0.376382 0.000000 0.000000 0.000000 0.381649 0.141493 -0.631162 -6.613332 -1.213752 0.890718 -11.577022 0.016943 0.622524 6.927994 -17.481864 -9.613749 0.000000 0.000000 0.000000 0.000000 0.000000 0.000000 2.538207 -0.979473 -1.464190 2.762840 2.184865 4.832698 5.582374 -3.916808 -4.824926 10.751715 -6.178554 4.872174 0.000000 0.000000 0.000000 0.000000 0.000000 0.000000 -6.632511 -3.772476 2.754566 1.825821 3.747804 1.389473 -0.243094 -16.456976 -11.669990 0.000000 0.000000 0.000000 -10.958772 -1.549531 4.487093 7.074170 0.473250 -0.278955 0.240204 0.118838 -0.944784 0.000000 0.000000 0.000000
35.352848 77.521751 350.007444 4.436508 0.171981 -4.125724 -0.863205 0.228354 4.287218 -0.393186 -0.206891 0.153057 -0.072016 0.223289 -0.408871 0.000000 0.000000 0.000000 0.448945 0.193266 -0.735990 -7.594941 -1.505756 1.009042 -11.991798 0.388800 0.843264 5.682682 -20.471575 -11.351953 0.000000 0.000000 0.000000 0.000000 0.000000 0.000000 3.340389 -1.786102 -2.396675 2.505288 3.483857 6.398685 7.354310 -5.660876 -6.077673 15.461832 -5.197330 7.314168 0.000000 0.000000 0.000000 0.000000 0.000000 0.000000 -7.379248 -4.363894 2.158840 1.717940 4.665317 1.692124 -0.935185 -21.390626 -15.415070 0.000000 0.000000 0.000000 -12.023007 -2.018498 4.156565 7.701373 0.956754 -0.287610 0.259794 0.117440 -1.028283 0.000000 0.000000 0.000000
35.433144 77.403896 350.065824 4.329783 -0.073113 -4.154592 -0.553860 0.535336 4.328666 -0.524709 -0.068151 0.149115 0.578343 -0.211892 -0.377251 0.000000 0.000000 0.000000 0.424249 0.387134 -0.814174 -8.182435 -2.215275 1.040728 -12.124784 0.734635 0.989861 4.535113 -22.060099 -12.197231 0.000000 0.000000 0.000000 0.000000 0.000000 0.000000 3.887359 -3.151972 -3.794728 2.235642 5.491015 8.492447 8.595156 -9.209932 -8.778995 28.312170 3.964655 11.817787 0.000000 0.000000 0.000000 0.000000 0.000000 0.000000 -6.834392 -4.554602 1.989967 0.544679 5.611301 1.955375 -2.333570 -28.170646 -21.277095 0.000000 0.000000 0.000000 -11.665225 -1.962263 4.196576 6.232880 1.289915 -0.529512 1.516118 -0.007563 -0.912735 0.000000 0.000000 0.000000
35.644492 77.278363 349.991927 4.387896 -0.221987 -3.672088 -0.394352 0.672255 3.858113 -0.560298 0.015317 0.155139 1.228138 -0.598715 -0.339955 0.000000 0.000000 0.000000 0.278827 0.423503 -0.852655 -8.292032 -2.386908 1.037239 -11.976753 1.601526 1.600044 2.473705 -24.523217 -13.753370 0.000000 0.000000 0.000000 0.000000 0.000000 0.000000 4.757491 -4.319597 -5.065729 0.039606 6.075913 9.297237 14.070287 -12.047873 -9.851984 35.728524 8.893389 13.515215 0.000000 0.000000 0.000000 0.000000 0.000000 0.000000 -6.898628 -4.873494 1.253259 0.048752 6.518616 2.267817 -4.574715 -34.227591 -26.241202 0.000000 0.000000 0.000000 -11.121027 -2.587563 3.587075 4.977168 2.413828 -0.532370 2.179821 -0.237981 -0.712522 0.000000 0.000000 0.000000
